<svg width="385" height="385" viewBox="0 0 385 385" fill="none" xmlns="http://www.w3.org/2000/svg">
<mask id="path-1-inside-1_2200_13001" fill="white">
<path fill-rule="evenodd" clip-rule="evenodd" d="M95.8068 288.14C72.3753 264.708 72.3753 226.718 95.8068 203.287C106.271 192.822 119.64 187.031 133.318 185.914C147.371 184.766 162.204 182.144 172.174 172.174V172.174C182.144 162.204 184.766 147.37 185.914 133.318C187.031 119.639 192.822 106.271 203.287 95.8066C226.718 72.3752 264.708 72.3752 288.14 95.8066C311.571 119.238 311.571 157.228 288.14 180.659C277.675 191.124 264.307 196.915 250.629 198.033C236.576 199.181 221.742 201.802 211.772 211.772V211.772C201.802 221.742 199.181 236.576 198.033 250.629C196.915 264.307 191.124 277.675 180.66 288.14C157.228 311.571 119.238 311.571 95.8068 288.14Z"/>
</mask>
<path d="M198.033 250.629L182.086 249.326L198.033 250.629ZM84.4931 191.973C54.8132 221.653 54.8132 269.774 84.4931 299.453L107.12 276.826C89.9374 259.643 89.9374 231.784 107.12 214.601L84.4931 191.973ZM132.015 169.967C114.698 171.382 97.739 178.727 84.4931 191.973L107.12 214.601C114.804 206.917 124.581 202.681 134.621 201.861L132.015 169.967ZM201.861 134.621C202.681 124.581 206.918 114.803 214.601 107.12L191.973 84.4929C178.727 97.7389 171.382 114.698 169.967 132.015L201.861 134.621ZM214.601 107.12C231.784 89.9373 259.643 89.9373 276.826 107.12L299.454 84.4929C269.774 54.8131 221.653 54.8131 191.973 84.4929L214.601 107.12ZM276.826 107.12C294.009 124.303 294.009 152.163 276.826 169.346L299.454 191.973C329.133 162.293 329.133 114.173 299.454 84.4929L276.826 107.12ZM276.826 169.346C269.143 177.029 259.366 181.265 249.326 182.086L251.932 213.979C269.248 212.565 286.208 205.219 299.454 191.973L276.826 169.346ZM191.973 299.453C205.219 286.207 212.565 269.248 213.98 251.931L182.086 249.326C181.266 259.366 177.029 269.143 169.346 276.826L191.973 299.453ZM84.4931 299.453C114.173 329.133 162.293 329.133 191.973 299.453L169.346 276.826C152.163 294.009 124.304 294.009 107.12 276.826L84.4931 299.453ZM200.459 200.458C186.015 214.902 183.241 235.184 182.086 249.326L213.98 251.931C215.121 237.967 217.59 228.582 223.086 223.086L200.459 200.458ZM183.488 183.488C197.931 169.044 200.705 148.762 201.861 134.621L169.967 132.015C168.826 145.979 166.357 155.364 160.861 160.86L183.488 183.488ZM249.326 182.086C235.185 183.241 214.902 186.015 200.459 200.458L223.086 223.086C228.582 217.59 237.967 215.12 251.932 213.979L249.326 182.086ZM134.621 201.861C148.762 200.705 169.045 197.931 183.488 183.488L160.861 160.86C155.364 166.357 145.979 168.826 132.015 169.967L134.621 201.861Z" fill="#9254DE" mask="url(#path-1-inside-1_2200_13001)"/>
<rect x="64.9333" y="138.713" width="104" height="104" rx="52" transform="rotate(-45 64.9333 138.713)" stroke="#9254DE" stroke-width="16"/>
<rect x="171.933" y="245.713" width="104" height="104" rx="52" transform="rotate(-45 171.933 245.713)" stroke="#9254DE" stroke-width="16"/>
</svg>
